<svg xmlns="http://www.w3.org/2000/svg" viewBox="0 0 64 64">
  <rect width="64" height="64" rx="14" fill="#f7f8f5"/>
  <path
    fill="#1f9d66"
    d="M31.8 14.4c1.2-4.2 4.8-7.1 9-7.4-1.2 3.8-3.6 6.4-7.4 7.8 3.2-1.4 7.8-.8 11.4 1.8-3.8 2.2-7.5 2.6-11.2 1.2 1.8 2.5 2.3 5.5 1.2 9-2.9-1.7-4.8-4.1-5.6-7.1-2.2 2-5.2 2.9-8.8 2.4 1.4-3.6 3.8-5.8 7.2-6.8-3.7-.1-7-1.7-9.5-4.6 4.8-1.4 9.3-.2 13.7 3.7z"
  />
  <path
    fill="#ef3e4a"
    d="M14.8 27.1c0-8.2 6.4-13.2 16.9-8.2 10.5-5 17 0 17 8.2 0 13.2-9.1 24.1-17 28.9-7.9-4.8-16.9-15.7-16.9-28.9z"
  />
  <path
    fill="#d62839"
    d="M31.8 20c7.4-3.4 12.7-.9 12.7 6.8 0 10.2-6.4 19.2-12.7 24.1V20z"
    opacity=".32"
  />
  <g fill="#ffe7a8">
    <ellipse cx="24" cy="29" rx="1.9" ry="2.7" transform="rotate(-22 24 29)"/>
    <ellipse cx="34" cy="29" rx="1.9" ry="2.7" transform="rotate(18 34 29)"/>
    <ellipse cx="41" cy="36" rx="1.8" ry="2.6" transform="rotate(24 41 36)"/>
    <ellipse cx="28" cy="39" rx="1.8" ry="2.6" transform="rotate(-10 28 39)"/>
    <ellipse cx="35" cy="46" rx="1.7" ry="2.4" transform="rotate(16 35 46)"/>
    <ellipse cx="21" cy="37" rx="1.7" ry="2.4" transform="rotate(-24 21 37)"/>
  </g>
</svg>
